<?xml version="1.0" standalone="no"?>
<!DOCTYPE svg PUBLIC "-//W3C//DTD SVG 20010904//EN"
 "http://www.w3.org/TR/2001/REC-SVG-20010904/DTD/svg10.dtd">
<svg version="1.0" xmlns="http://www.w3.org/2000/svg"
 width="312.000000pt" height="312.000000pt" viewBox="0 0 312.000000 312.000000"
 preserveAspectRatio="xMidYMid meet">
<metadata>
Created by potrace 1.11, written by Peter Selinger 2001-2013
</metadata>
<g transform="translate(0.000000,312.000000) scale(0.100000,-0.100000)"
fill="#000000" stroke="none">
<path d="M542 2935 c-62 -20 -111 -52 -164 -107 -168 -171 -149 -444 41 -601
12 -9 26 -17 31 -17 6 0 10 -4 10 -9 0 -8 20 -18 50 -26 3 -1 18 -7 34 -14 67
-27 247 -21 267 10 3 6 10 10 15 10 17 -1 44 10 44 20 0 5 4 9 10 9 12 0 45
27 74 59 12 13 27 30 34 37 26 27 61 112 72 176 14 81 2 176 -32 246 -32 66
-121 153 -193 187 -51 25 -73 30 -155 32 -61 1 -111 -3 -138 -12z"/>
<path d="M2334 2932 c-61 -21 -142 -79 -182 -130 -140 -178 -111 -428 67 -575
12 -9 26 -17 31 -17 6 0 10 -4 10 -9 0 -10 27 -21 44 -20 5 0 12 -3 15 -8 11
-16 87 -33 146 -33 59 0 135 17 146 33 3 5 10 8 15 8 17 -1 44 10 44 20 0 5 4
9 10 9 12 0 45 27 74 59 12 13 26 29 32 36 26 27 64 117 74 179 34 192 -82
387 -268 448 -71 23 -190 23 -258 0z"/>
<path d="M1400 2531 c-100 -27 -167 -68 -256 -156 -61 -60 -90 -99 -118 -155
-133 -273 -56 -580 192 -768 17 -13 34 -23 37 -22 3 0 13 -6 21 -15 9 -8 20
-13 25 -10 5 4 9 1 9 -5 0 -6 5 -8 10 -5 6 3 10 1 10 -4 0 -6 3 -10 8 -9 4 1
21 -5 37 -12 17 -7 44 -14 60 -15 17 -2 38 -6 48 -10 27 -11 206 1 242 16 17
6 39 14 50 16 10 2 22 8 26 14 3 6 8 10 10 8 9 -5 49 13 49 22 0 5 6 9 14 9
32 0 144 110 199 195 220 343 38 808 -358 910 -80 20 -232 19 -315 -4z"/>
<path d="M180 2124 c-61 -52 -92 -147 -111 -338 -14 -143 -8 -249 15 -294 19
-37 86 -112 86 -97 0 6 4 4 9 -3 4 -7 14 -15 22 -16 8 -2 27 -8 42 -15 16 -6
32 -9 37 -6 5 3 11 1 15 -5 4 -6 61 -10 144 -10 l137 0 31 33 c38 40 82 77 93
77 5 0 10 3 12 8 3 6 62 37 80 41 4 1 27 9 50 17 37 13 88 23 136 26 17 2 17
2 -32 102 -53 107 -78 218 -75 328 1 43 -2 78 -7 78 -5 1 -31 -5 -59 -11 -73
-18 -209 -16 -285 5 -36 10 -107 37 -159 62 -51 24 -106 44 -122 44 -15 0 -41
-12 -59 -26z"/>
<path d="M2788 2114 c-120 -61 -211 -86 -318 -87 -52 -1 -120 5 -150 13 -30 7
-57 12 -59 12 -2 -1 -3 -37 -2 -80 3 -110 -22 -221 -75 -328 -49 -101 -49
-100 -31 -102 6 -1 30 -4 52 -6 22 -3 59 -11 83 -20 23 -8 43 -15 45 -15 6 2
82 -37 85 -43 2 -5 8 -8 13 -8 12 0 55 -36 93 -77 l30 -33 136 0 c75 0 140 3
143 7 4 3 22 8 39 10 18 2 35 8 36 13 2 6 7 8 12 5 5 -3 16 2 24 11 9 8 16 12
16 8 0 -14 68 64 85 97 24 45 29 155 16 294 -19 192 -50 287 -111 339 -42 35
-80 33 -162 -10z"/>
<path d="M875 1436 c-209 -67 -329 -238 -385 -546 -44 -246 -36 -433 22 -543
37 -69 109 -146 130 -140 5 2 8 -2 8 -8 0 -5 5 -7 10 -4 6 3 10 1 10 -6 0 -7
3 -9 7 -6 3 4 17 0 30 -8 13 -9 28 -13 33 -10 5 3 12 0 15 -6 4 -5 13 -8 20
-5 7 2 15 2 18 0 6 -6 1538 -6 1544 0 3 2 11 2 18 0 7 -3 16 -1 19 5 4 6 13 8
20 5 8 -3 17 0 21 5 3 6 11 9 16 6 5 -4 9 -1 9 5 0 6 5 8 10 5 6 -3 10 -1 10
5 0 6 5 8 10 5 6 -3 10 -1 10 4 0 6 5 11 10 11 28 0 91 68 128 137 42 79 56
176 48 322 -25 426 -157 681 -394 760 -34 12 -85 21 -115 21 -49 0 -62 -6
-158 -67 -160 -102 -282 -143 -432 -143 -150 0 -277 40 -419 133 -46 30 -93
59 -105 65 -28 15 -117 14 -168 -2z"/>
</g>
</svg>
